<?xml version="1.0" standalone="no"?>
<!DOCTYPE svg PUBLIC "-//W3C//DTD SVG 20010904//EN"
 "http://www.w3.org/TR/2001/REC-SVG-20010904/DTD/svg10.dtd">
<svg version="1.0" xmlns="http://www.w3.org/2000/svg"
 width="769.000000pt" height="582.000000pt" viewBox="0 0 769.000000 582.000000"
 preserveAspectRatio="xMidYMid meet">
<metadata>
Created by potrace 1.16, written by Peter Selinger 2001-2019
</metadata>
<g transform="translate(0.000000,582.000000) scale(0.100000,-0.100000)"
fill="#000000" stroke="none">
<path d="M0 2910 l0 -2910 3845 0 3845 0 0 2910 0 2910 -3845 0 -3845 0 0
-2910z m3274 2217 c79 -2 80 -2 88 -32 5 -16 7 -75 4 -130 -3 -55 -2 -115 2
-133 l7 -33 172 -2 c94 -1 174 -4 176 -7 10 -10 18 -695 9 -708 -7 -10 -52
-14 -177 -17 -92 -2 -171 -7 -176 -12 -6 -6 -11 -69 -13 -142 -2 -128 -3 -132
-29 -159 -25 -25 -34 -27 -105 -27 -42 0 -227 2 -410 3 -183 2 -337 0 -342 -3
-5 -3 -195 -5 -423 -5 -496 0 -458 10 -468 -127 -4 -48 -4 -251 -2 -451 l4
-362 -28 -29 c-28 -28 -30 -28 -182 -33 -84 -3 -167 -2 -185 1 l-31 7 -1 639
c-1 352 -2 806 -3 1009 -1 321 0 372 14 393 23 35 54 43 161 43 158 0 174 18
174 199 0 65 3 121 7 125 6 6 1449 0 1757 -7z m2698 3 c74 0 78 -9 78 -164 0
-89 4 -136 12 -144 8 -8 55 -12 145 -12 143 0 186 -11 198 -49 3 -11 7 -170 8
-353 l2 -333 -175 -8 c-96 -5 -179 -13 -185 -18 -11 -11 -20 -197 -11 -233 6
-23 9 -23 177 -28 94 -3 175 -10 181 -16 6 -6 10 -142 11 -352 2 -328 1 -342
-17 -356 -15 -10 -54 -14 -154 -14 l-134 0 -29 -29 c-28 -28 -29 -33 -29 -121
0 -105 -14 -141 -64 -162 -28 -12 -446 -14 -1526 -6 -19 0 -148 -1 -287 -1
-139 0 -264 4 -277 9 -49 18 -56 44 -58 211 -1 85 1 159 5 166 6 9 229 12 950
12 518 -1 989 2 1045 6 135 10 147 21 157 140 11 123 -2 437 -17 447 -7 4
-410 7 -896 6 -876 -3 -882 -3 -883 17 -3 85 4 362 10 368 4 4 399 9 879 10
790 3 873 5 889 19 17 16 18 37 16 289 -2 170 -7 277 -14 285 -19 23 -179 27
-1159 28 l-975 1 -3 196 -2 197 1042 -4 c574 -2 1064 -4 1090 -4z m-4704
-2677 c3 -42 4 -43 40 -43 20 0 42 -4 48 -8 7 -4 13 -44 15 -92 l4 -85 -52 -3
-52 -3 -3 -42 -3 -42 -242 -3 -243 -2 -1 -118 c-2 -172 4 -157 -57 -160 l-52
-3 2 278 3 278 48 3 47 3 0 39 c0 21 5 40 12 42 7 3 118 4 248 4 l235 -1 3
-42z m840 37 l52 0 0 -39 c0 -22 -4 -42 -9 -46 -5 -3 -127 -5 -270 -5 -143 0
-272 -5 -286 -10 -24 -9 -25 -14 -25 -85 l0 -75 143 -1 c78 -1 183 -2 232 -3
l90 -1 3 -47 3 -48 -233 -2 -233 -3 -3 -79 c-2 -44 1 -83 6 -88 5 -5 138 -9
295 -8 l287 0 0 -34 c0 -70 19 -66 -306 -66 l-294 0 0 45 0 45 -42 0 c-24 0
-49 4 -56 9 -10 6 -12 56 -10 226 l3 218 45 11 c42 10 45 13 48 48 l3 37 137
3 c75 2 189 2 252 1 63 -1 139 -2 168 -3z m734 -32 l3 -43 55 -5 55 -5 3 -70
c4 -109 1 -115 -58 -115 -54 0 -67 -15 -54 -64 l6 -26 -145 0 c-89 0 -148 -4
-152 -10 -8 -13 -10 -158 -2 -166 3 -3 94 -5 202 -5 l196 1 -3 -53 -3 -52
-170 -2 c-93 -2 -184 -1 -202 2 -29 5 -32 9 -35 48 l-3 42 -47 3 -48 3 0 100
0 99 28 0 c59 0 72 9 72 51 l0 39 140 0 c127 0 140 2 150 19 14 27 13 124 -2
139 -14 14 -434 17 -455 4 -9 -6 -13 -76 -15 -272 l-3 -265 -55 0 -55 0 -1
277 -1 277 46 3 c45 3 46 4 49 40 2 29 8 37 25 40 12 2 124 4 249 6 l227 3 3
-43z m883 -8 l0 -45 -282 -6 c-155 -4 -287 -10 -293 -14 -13 -8 -4 -133 10
-149 4 -4 113 -9 242 -10 l233 -1 5 -45 5 -45 45 -5 45 -5 3 -87 3 -87 -48 -3
-48 -3 -5 -50 -5 -50 -303 -3 -303 -2 3 52 3 53 273 2 c167 2 280 7 292 13 17
9 20 21 20 85 0 40 -4 76 -9 80 -5 3 -113 6 -240 6 l-230 0 -6 37 c-10 60 -12
62 -53 62 l-39 0 -6 68 c-10 99 -4 112 49 112 46 0 49 4 45 66 -2 20 0 21 296
20 l298 -1 0 -45z m707 7 c3 -42 3 -42 48 -47 l45 -5 6 -85 c4 -47 4 -150 0
-230 l-6 -145 -37 0 c-47 -1 -56 -10 -60 -60 l-3 -40 -250 0 -250 0 -5 45 c-5
45 -5 45 -50 50 l-45 5 0 230 1 230 44 5 c44 5 45 6 48 42 l3 37 62 3 c34 2
148 4 254 5 l192 2 3 -42z m493 -1 c2 -42 16 -56 57 -56 l28 0 2 -227 3 -228
64 -3 c35 -2 77 2 93 9 28 11 28 13 29 98 3 488 -1 461 72 447 l37 -7 0 -274
0 -274 -47 -3 -48 -3 -5 -45 -5 -45 -97 -3 -98 -3 0 45 c0 44 -1 45 -37 51
-78 13 -71 -7 -72 232 -1 119 -4 220 -7 224 -7 12 -135 11 -154 -1 -12 -7 -14
-51 -13 -275 l2 -266 -52 3 -52 3 -3 271 -2 272 22 6 c13 3 33 6 46 6 19 0 22
5 22 39 0 46 0 46 129 46 l83 0 3 -39z m1018 39 c45 -7 47 -8 47 -40 0 -42 20
-54 72 -48 l38 6 1 -69 c6 -299 4 -462 -3 -477 -7 -14 -19 -17 -55 -15 l-46 3
-4 125 c-2 69 -6 131 -8 138 -3 9 -48 12 -179 12 -96 0 -181 3 -190 6 -11 4
-16 19 -16 50 l0 44 190 0 c215 0 210 -2 210 85 0 89 10 85 -250 85 -195 0
-230 -2 -238 -15 -4 -9 -6 -132 -4 -275 l4 -260 -55 0 c-43 0 -56 4 -61 17 -4
10 -4 133 0 275 l7 258 37 0 c45 0 60 14 60 60 l0 35 198 3 c108 2 218 0 245
-3z m834 -5 c18 0 22 -7 25 -37 3 -38 3 -38 51 -41 l47 -3 0 -68 c0 -38 3 -82
6 -99 l6 -31 -53 -3 c-53 -3 -54 -4 -57 -35 l-3 -33 50 0 51 0 0 -99 0 -100
-47 -3 c-48 -3 -48 -3 -53 -43 l-5 -40 -295 0 -295 0 -3 52 -3 53 293 2 293 3
3 78 3 77 -246 0 -246 0 3 53 3 52 243 3 243 2 -3 78 -3 77 -265 2 c-146 1
-277 2 -292 2 -27 1 -28 3 -28 50 0 39 4 50 18 53 9 2 134 3 277 1 143 -2 270
-3 282 -3z m-2057 -1180 l0 -380 160 0 160 0 0 -132 0 -131 -442 6 c-244 4
-1181 7 -2083 7 l-1640 1 -98 131 -97 132 0 368 0 368 1993 3 c1095 1 2004 3
2020 5 l27 2 0 -380z m815 355 c26 -7 61 -26 76 -41 l29 -28 0 -412 c0 -397
-1 -412 -20 -437 -38 -48 -98 -62 -265 -62 -164 0 -199 9 -255 70 l-25 27 0
402 c0 333 2 406 14 420 27 32 98 66 157 76 75 11 228 4 289 -15z m1257 -5
c33 -12 68 -34 83 -51 l25 -31 0 -397 c0 -455 5 -428 -92 -472 -52 -24 -60
-24 -385 -27 l-332 -3 -3 43 -3 43 -87 3 -88 3 0 -33 c0 -57 -5 -59 -136 -56
l-120 3 80 497 81 498 182 0 c164 0 182 -2 187 -17 3 -10 35 -205 71 -433 36
-228 70 -424 75 -435 5 -12 9 170 9 439 l1 459 198 -6 c168 -4 205 -8 254 -27z"/>
<path d="M1613 4724 c-16 -7 -21 -44 -27 -184 -8 -170 4 -388 20 -394 13 -5
885 -22 994 -20 30 1 196 3 368 5 219 2 315 6 322 14 11 13 16 562 6 573 -7 6
-364 10 -441 5 -16 -1 -300 0 -630 2 -330 3 -605 2 -612 -1z"/>
<path d="M789 2379 c-5 -11 -9 -47 -7 -82 l3 -62 240 0 240 0 -1 66 c-1 108
19 100 -239 98 -211 -1 -226 -2 -236 -20z"/>
<path d="M3950 2390 c-13 -8 -15 -43 -15 -214 0 -132 4 -209 11 -216 7 -7 87
-11 224 -11 169 0 216 3 227 14 11 10 14 56 13 216 0 111 -2 207 -5 212 -8 12
-436 11 -455 -1z"/>
<path d="M5311 1433 c-21 -18 -21 -23 -19 -258 l3 -240 28 -13 c16 -8 40 -11
57 -7 45 10 52 53 48 297 -3 194 -4 211 -22 224 -27 19 -69 18 -95 -3z"/>
<path d="M6550 1180 l0 -270 43 0 c23 0 53 7 65 16 22 15 22 19 22 253 0 273
1 271 -83 271 l-47 0 0 -270z"/>
<path d="M5972 1233 c-13 -103 -23 -191 -22 -195 0 -5 23 -8 51 -8 l52 0 -6
38 c-3 20 -13 100 -22 177 -9 77 -19 148 -23 158 -4 10 -17 -66 -30 -170z"/>
</g>
</svg>
